<?xml version="1.0" standalone="no"?>
<!DOCTYPE svg PUBLIC "-//W3C//DTD SVG 20010904//EN"
 "http://www.w3.org/TR/2001/REC-SVG-20010904/DTD/svg10.dtd">
<svg version="1.0" xmlns="http://www.w3.org/2000/svg"
 width="201.000000pt" height="100.000000pt" viewBox="0 0 201.000000 100.000000"
 preserveAspectRatio="xMidYMid meet">

<g transform="translate(0.000000,100.000000) scale(0.100000,-0.100000)"
fill="#000000" stroke="none">
<path d="M7 833 c-4 -3 -7 -123 -7 -265 l0 -258 45 0 45 0 0 265 0 265 -38 0
c-21 0 -42 -3 -45 -7z"/>
<path d="M327 834 c-4 -4 -7 -124 -7 -266 l0 -258 45 0 c39 0 45 3 45 22 0 20
1 20 19 4 75 -68 224 -23 267 81 36 84 3 195 -70 238 -55 32 -136 34 -183 5
l-32 -19 -3 97 -3 97 -35 3 c-20 2 -39 0 -43 -4z m259 -255 c50 -47 51 -114 2
-166 -45 -49 -133 -37 -169 21 -50 83 11 183 104 172 22 -2 50 -14 63 -27z"/>
<path d="M926 680 c-16 -5 -39 -19 -52 -31 l-24 -22 0 26 c0 25 -3 27 -40 27
l-40 0 0 -185 0 -185 40 0 40 0 0 100 c0 148 23 190 104 190 36 0 36 0 36 45
0 49 -6 52 -64 35z"/>
<path d="M1529 667 c-24 -13 -57 -43 -74 -66 -26 -37 -30 -52 -30 -106 0 -54
4 -69 30 -106 97 -138 320 -105 364 53 47 167 -134 307 -290 225z m177 -91
c29 -29 34 -41 34 -80 0 -36 -6 -52 -29 -78 -27 -30 -35 -33 -86 -33 -51 0
-59 3 -86 33 -23 26 -29 42 -29 78 0 39 5 51 34 80 29 29 41 34 81 34 40 0 52
-5 81 -34z"/>
<path d="M167 673 c-4 -3 -7 -87 -7 -185 l0 -178 45 0 45 0 0 185 0 185 -38 0
c-21 0 -42 -3 -45 -7z"/>
<path d="M1106 498 c41 -101 76 -193 76 -206 1 -34 -30 -62 -69 -62 -31 0 -33
-2 -33 -34 0 -26 5 -36 20 -41 29 -9 93 12 119 39 12 13 61 122 108 242 47
121 87 225 90 232 4 8 -8 12 -40 12 l-45 0 -48 -135 c-27 -74 -51 -135 -54
-135 -3 0 -28 60 -57 133 l-52 132 -45 3 -45 3 75 -183z"/>
</g>
</svg>
