<?xml version="1.0" standalone="no"?>
<!DOCTYPE svg PUBLIC "-//W3C//DTD SVG 20010904//EN"
 "http://www.w3.org/TR/2001/REC-SVG-20010904/DTD/svg10.dtd">
<svg version="1.0" xmlns="http://www.w3.org/2000/svg"
 width="400.000000pt" height="300.000000pt" viewBox="0 0 400.000000 300.000000"
 preserveAspectRatio="xMidYMid meet">

<g transform="translate(0.000000,300.000000) scale(0.100000,-0.100000)"
fill="#000000" stroke="none">
<path d="M1523 2904 c-175 -38 -354 -119 -483 -219 -229 -178 -389 -456 -429
-748 -57 -412 131 -840 471 -1075 343 -236 769 -273 1135 -97 51 24 121 63
155 86 77 52 214 183 273 262 24 32 47 56 52 55 4 -2 121 -121 261 -265 282
-291 291 -298 365 -265 54 24 82 75 72 129 -6 35 -37 69 -543 594 l-102 107
35 53 c85 129 126 276 127 454 2 232 -79 424 -248 584 -78 75 -198 151 -279
177 -27 9 -93 38 -145 64 -184 91 -310 120 -513 119 -79 -1 -170 -7 -204 -15z
m351 -97 c22 -12 37 -26 35 -32 -5 -11 -127 -54 -134 -47 -8 8 -6 98 2 106 10
10 51 -1 97 -27z m-176 -57 l-3 -64 -54 -37 c-108 -75 -216 -199 -275 -316
-28 -56 -46 -68 -46 -30 0 31 79 222 120 292 64 107 226 252 253 226 4 -5 7
-37 5 -71z m-188 62 c0 -4 -16 -24 -36 -43 -75 -73 -187 -281 -224 -417 -10
-41 -13 -43 -38 -37 -102 24 -252 128 -252 174 0 11 27 44 61 75 112 104 239
178 389 227 94 31 100 32 100 21z m540 -22 c0 -5 -4 -10 -9 -10 -6 0 -13 5
-16 10 -3 6 1 10 9 10 9 0 16 -4 16 -10z m248 -203 c178 -60 313 -177 391
-341 40 -86 52 -141 55 -256 4 -160 -32 -285 -115 -394 -96 -127 -185 -195
-321 -243 -64 -22 -89 -26 -203 -26 -152 0 -209 13 -324 77 -83 46 -146 103
-210 189 -225 306 -124 757 210 941 63 34 155 69 209 79 14 2 66 5 116 6 79 1
105 -4 192 -32z m-1370 -199 c47 -56 166 -122 278 -153 8 -2 9 -19 3 -52 -10
-62 -27 -200 -35 -285 l-6 -68 -244 0 c-226 0 -244 1 -244 18 1 38 30 200 45
252 32 104 147 320 171 320 3 0 17 -14 32 -32z m371 -250 c-8 -38 -13 -112
-12 -185 1 -115 0 -123 -18 -123 -22 0 -22 -3 -9 131 14 144 36 256 47 245 3
-3 0 -34 -8 -68z m-129 -395 c1 -47 24 -257 34 -312 8 -39 10 -74 5 -77 -5 -3
-35 -14 -66 -25 -86 -29 -190 -95 -222 -140 l-29 -39 -35 52 c-47 73 -95 170
-124 253 -22 64 -52 219 -53 273 l0 22 245 0 c135 0 245 -3 245 -7z m160 -48
c26 -76 64 -146 119 -219 l50 -65 -32 -6 c-18 -2 -59 -9 -91 -15 -83 -14 -83
-14 -90 23 -10 47 -36 267 -36 305 0 31 2 33 32 30 28 -3 33 -9 48 -53z m308
-400 l62 -45 0 -245 c0 -134 -4 -246 -8 -249 -19 -12 -96 41 -161 110 -77 82
-140 194 -190 337 -17 49 -31 90 -31 92 0 3 159 32 215 38 17 2 35 5 40 6 6 0
39 -19 73 -44z m992 -59 c0 -6 -10 -24 -23 -39 l-22 -28 -44 45 -43 44 38 20
39 20 28 -26 c15 -14 27 -31 27 -36z m-1375 -26 c52 -159 137 -317 215 -398
23 -24 39 -46 36 -49 -19 -19 -236 69 -344 139 -91 60 -202 164 -202 190 0 30
70 98 134 130 77 39 129 58 137 49 4 -3 15 -31 24 -61z m640 -28 c44 -11 122
-24 173 -29 l94 -8 -52 -104 c-43 -84 -68 -120 -130 -182 -75 -77 -141 -118
-187 -119 l-23 0 0 236 0 236 23 -5 c12 -3 58 -14 102 -25z m567 -5 c23 -18
47 -46 53 -61 9 -27 6 -32 -68 -102 -42 -40 -111 -94 -153 -120 -78 -48 -262
-130 -271 -120 -3 3 12 25 34 49 59 64 112 150 154 251 l37 89 74 22 c96 29
90 30 140 -8z"/>
<path d="M1971 2317 c-23 -25 -22 -47 3 -47 8 0 19 7 26 15 9 11 35 15 103 15
76 0 94 -3 112 -20 14 -13 25 -16 35 -10 13 8 11 14 -11 36 -25 24 -34 27
-135 31 -107 5 -109 5 -133 -20z"/>
<path d="M1707 2237 c-12 -4 -25 -13 -29 -20 -4 -7 -8 -65 -8 -129 0 -110 1
-118 22 -132 14 -10 44 -16 76 -16 29 0 61 -4 70 -9 9 -5 46 -10 81 -12 58 -4
66 -2 70 16 4 11 14 32 24 45 16 23 23 25 84 23 73 -3 98 -17 108 -64 l6 -28
112 4 c195 8 200 12 212 120 19 183 12 194 -129 196 -50 1 -223 4 -384 8 -161
3 -303 2 -315 -2z"/>
<path d="M2042 1948 c-30 -30 -6 -82 42 -91 50 -8 76 7 76 46 0 44 -15 57 -65
57 -23 0 -46 -5 -53 -12z"/>
<path d="M1697 1894 c-4 -4 -7 -49 -7 -100 0 -145 -35 -133 406 -140 l371 -7
16 24 c13 18 17 46 17 115 0 50 -2 93 -4 95 -2 2 -67 0 -144 -6 -120 -9 -144
-13 -164 -31 -13 -12 -32 -24 -42 -28 -32 -11 -106 5 -135 30 -21 18 -50 26
-112 35 -127 17 -193 21 -202 13z"/>
<path d="M500 579 c-37 -15 -60 -49 -60 -92 0 -50 32 -79 110 -101 85 -24 110
-55 74 -90 -27 -27 -96 -15 -117 20 -4 8 -24 14 -42 14 -44 0 -45 -18 -6 -62
26 -29 35 -33 98 -36 110 -6 153 24 153 108 0 54 -31 83 -116 106 -76 20 -95
43 -64 74 27 27 56 25 86 -5 30 -31 84 -35 84 -7 0 23 -34 60 -67 73 -31 12
-101 11 -133 -2z"/>
<path d="M845 423 c-31 -93 -59 -174 -62 -181 -4 -10 5 -13 33 -10 33 3 39 7
49 38 l12 35 70 3 70 3 13 -41 c12 -38 15 -40 53 -40 27 0 38 4 35 13 -3 6
-31 87 -64 179 l-59 168 -47 0 -46 0 -57 -167z m133 20 c11 -34 18 -64 14 -67
-7 -8 -92 -8 -92 0 0 25 43 145 49 138 5 -5 18 -37 29 -71z"/>
<path d="M1200 410 l0 -180 40 0 40 0 0 63 c0 49 4 68 18 81 18 15 21 12 73
-64 53 -78 55 -79 97 -80 23 0 42 2 42 5 0 3 -28 45 -63 93 -35 48 -67 93 -71
101 -6 9 14 36 65 87 l73 74 -45 0 c-45 0 -48 -2 -115 -79 l-69 -79 -3 79 -3
79 -39 0 -40 0 0 -180z"/>
<path d="M1611 414 c-33 -97 -61 -178 -61 -180 0 -3 17 -4 37 -2 32 3 38 8 48
38 l12 35 70 3 70 3 12 -41 c11 -38 14 -40 52 -40 22 0 39 4 37 9 -1 5 -30 86
-63 180 l-60 171 -46 0 -47 0 -61 -176z m128 44 c29 -86 29 -88 -24 -88 -30 0
-45 4 -45 13 0 15 40 137 45 137 2 0 13 -28 24 -62z"/>
<path d="M2004 410 l-61 -180 37 0 c34 0 38 3 49 40 l12 40 68 0 68 0 16 -40
c14 -36 19 -40 51 -40 20 0 36 4 36 8 0 5 -27 85 -60 177 -33 92 -60 170 -60
172 0 1 -21 3 -47 3 l-48 0 -61 -180z m129 53 c9 -32 19 -66 22 -75 6 -16 1
-18 -37 -18 -25 0 -47 2 -50 5 -7 7 33 145 42 145 4 0 14 -26 23 -57z"/>
<path d="M2430 456 c0 -74 -3 -141 -6 -150 -4 -10 -18 -16 -40 -16 -31 0 -34
-3 -34 -30 0 -30 1 -30 54 -30 47 0 57 4 75 26 19 24 21 40 21 180 l0 154 -35
0 -35 0 0 -134z"/>
<path d="M2620 410 l0 -180 35 0 35 0 0 180 0 180 -35 0 -35 0 0 -180z"/>
<path d="M2820 410 l0 -180 35 0 35 0 0 76 0 77 46 -7 c26 -3 53 -11 60 -17 7
-6 14 -36 16 -67 l3 -57 35 -3 35 -3 -3 68 c-2 43 -9 74 -19 85 -14 15 -13 20
6 44 44 55 15 134 -57 154 -20 5 -72 10 -114 10 l-78 0 0 -180z m180 100 c11
-11 20 -24 20 -30 0 -26 -41 -50 -85 -50 l-45 0 0 50 0 50 45 0 c32 0 51 -6
65 -20z"/>
<path d="M3227 417 c-31 -95 -57 -176 -57 -180 0 -4 15 -7 33 -7 30 0 35 4 47
40 l13 40 68 0 67 0 16 -40 c14 -36 19 -40 51 -40 19 0 35 4 35 9 0 8 -71 213
-107 309 -15 41 -17 42 -62 42 l-46 0 -58 -173z m131 35 c12 -38 22 -71 22
-75 0 -8 -84 -10 -92 -2 -6 7 34 145 42 145 3 0 16 -31 28 -68z"/>
</g>
</svg>
